<?xml version="1.0" standalone="no"?>
<!DOCTYPE svg PUBLIC "-//W3C//DTD SVG 20010904//EN"
 "http://www.w3.org/TR/2001/REC-SVG-20010904/DTD/svg10.dtd">
<svg version="1.0" xmlns="http://www.w3.org/2000/svg"
 width="360.000000pt" height="360.000000pt" viewBox="0 0 360.000000 360.000000"
 preserveAspectRatio="xMidYMid meet">
<metadata>
Created by potrace 1.14, written by Peter Selinger 2001-2017
</metadata>
<g transform="translate(0.000000,360.000000) scale(0.100000,-0.100000)"
fill="#000000" stroke="none">
<path d="M1040 2090 c0 -189 -2 -220 -15 -220 -13 0 -15 26 -15 175 l0 176
-87 -3 -88 -3 -3 -172 -2 -172 -63 -3 c-56 -3 -63 -5 -75 -31 -10 -21 -11 -35
-2 -61 13 -40 25 -46 91 -46 l49 0 0 -170 0 -170 90 0 90 0 0 170 c0 144 2
170 15 170 13 0 15 -31 15 -220 l0 -220 105 0 105 0 0 220 0 220 550 0 550 0
0 -220 0 -220 105 0 105 0 0 220 c0 189 2 220 15 220 13 0 15 -26 15 -170 l0
-170 90 0 90 0 0 170 0 170 54 0 c78 0 114 45 84 107 -12 26 -18 28 -76 31
l-62 3 0 175 0 175 -87 -3 -88 -3 -3 -172 c-4 -252 -21 -220 -24 45 l-3 217
-107 3 -108 3 0 -221 0 -220 -550 0 -550 0 0 220 0 220 -105 0 -105 0 0 -220z"/>
</g>
</svg>
